<?xml version="1.0" standalone="no"?>
<!DOCTYPE svg PUBLIC "-//W3C//DTD SVG 20010904//EN"
 "http://www.w3.org/TR/2001/REC-SVG-20010904/DTD/svg10.dtd">
<svg version="1.0" xmlns="http://www.w3.org/2000/svg"
 width="512.000000pt" height="512.000000pt" viewBox="0 0 512.000000 512.000000"
 preserveAspectRatio="xMidYMid meet">

<g transform="translate(0.000000,512.000000) scale(0.100000,-0.100000)"
fill="#1890FF" stroke="none">
<path d="M2291 4445 c-845 -128 -1496 -783 -1616 -1626 -19 -133 -19 -385 0
-518 59 -417 245 -788 541 -1085 296 -295 670 -482 1085 -541 133 -19 385 -19
518 0 846 120 1508 782 1625 1624 20 140 20 384 1 520 -87 608 -449 1126 -996
1424 -153 83 -371 158 -564 193 -125 23 -467 28 -594 9z m454 -145 c488 -56
919 -301 1213 -691 389 -514 460 -1215 183 -1794 -177 -370 -450 -646 -816
-826 -652 -319 -1416 -204 -1961 294 -193 177 -378 466 -464 724 -237 715 8
1496 611 1951 348 264 807 390 1234 342z"/>
<path d="M2522 3543 c-7 -3 -19 -18 -27 -33 -13 -24 -15 -98 -15 -450 l0 -420
-420 0 c-357 0 -425 -2 -450 -15 -53 -27 -53 -103 0 -130 25 -13 93 -15 450
-15 l420 0 0 -420 c0 -357 2 -425 15 -450 17 -32 51 -46 90 -36 53 13 55 28
55 486 l0 420 420 0 c357 0 425 2 450 15 53 27 53 103 0 130 -25 13 -93 15
-450 15 l-420 0 0 420 c0 443 -2 467 -45 484 -19 7 -54 7 -73 -1z"/>
</g>
</svg>
